<?xml version="1.0" encoding="UTF-8"?>
<svg xmlns="http://www.w3.org/2000/svg" xmlns:xlink="http://www.w3.org/1999/xlink" width="118pt" height="36pt" viewBox="0 0 118 36" version="1.1">
<g id="surface1">
<path style=" stroke:none;fill-rule:nonzero;fill:rgb(0%,0%,0%);fill-opacity:1;" d="M 39.214844 13.460938 L 20.335938 34.347656 L 1.226562 13.527344 L 20.265625 1.195312 Z M 39.214844 13.460938 "/>
<path style=" stroke:none;fill-rule:nonzero;fill:rgb(0%,0%,0%);fill-opacity:1;" d="M 57.589844 26.574219 L 48.398438 26.574219 L 48.398438 8.78125 L 50.472656 8.78125 L 50.472656 24.695312 L 57.589844 24.695312 Z M 57.589844 26.574219 "/>
<path style=" stroke:none;fill-rule:nonzero;fill:rgb(0%,0%,0%);fill-opacity:1;" d="M 68.78125 26.316406 L 66.789062 26.316406 L 66.789062 24.355469 L 66.742188 24.355469 C 65.878906 25.855469 64.601562 26.609375 62.910156 26.609375 C 61.667969 26.609375 60.703125 26.28125 59.996094 25.617188 C 59.292969 24.953125 58.945312 24.085938 58.945312 22.992188 C 58.945312 20.652344 60.3125 19.289062 63.054688 18.90625 L 66.789062 18.375 C 66.789062 16.25 65.9375 15.191406 64.222656 15.191406 C 62.71875 15.191406 61.363281 15.707031 60.152344 16.734375 L 60.152344 14.683594 C 61.375 13.90625 62.789062 13.511719 64.390625 13.511719 C 67.316406 13.511719 68.78125 15.066406 68.78125 18.1875 Z M 66.789062 19.976562 L 63.785156 20.390625 C 62.855469 20.527344 62.160156 20.753906 61.6875 21.078125 C 61.21875 21.40625 60.984375 21.992188 60.984375 22.835938 C 60.984375 23.445312 61.195312 23.949219 61.632812 24.332031 C 62.070312 24.71875 62.640625 24.917969 63.371094 24.917969 C 64.355469 24.917969 65.175781 24.570312 65.824219 23.871094 C 66.476562 23.171875 66.789062 22.296875 66.789062 21.226562 Z M 66.789062 19.976562 "/>
<path style=" stroke:none;fill-rule:nonzero;fill:rgb(0%,0%,0%);fill-opacity:1;" d="M 79.070312 15.820312 C 78.710938 15.550781 78.195312 15.402344 77.523438 15.402344 C 76.648438 15.402344 75.921875 15.820312 75.339844 16.644531 C 74.757812 17.464844 74.464844 18.601562 74.464844 20.03125 L 74.464844 26.574219 L 72.414062 26.574219 L 72.414062 13.738281 L 74.464844 13.738281 L 74.464844 16.382812 L 74.507812 16.382812 C 74.800781 15.484375 75.25 14.773438 75.84375 14.265625 C 76.4375 13.761719 77.109375 13.511719 77.847656 13.511719 C 78.375 13.511719 78.789062 13.570312 79.070312 13.691406 Z M 79.070312 15.820312 "/>
<path style=" stroke:none;fill-rule:nonzero;fill:rgb(0%,0%,0%);fill-opacity:1;" d="M 91.722656 13.511719 L 86.542969 26.574219 L 84.503906 26.574219 L 79.574219 13.511719 L 81.859375 13.511719 L 85.164062 23.003906 C 85.414062 23.703125 85.558594 24.3125 85.625 24.828125 L 85.683594 24.828125 C 85.769531 24.175781 85.90625 23.578125 86.085938 23.0625 L 89.539062 13.523438 L 91.722656 13.523438 Z M 91.722656 13.511719 "/>
<path style=" stroke:none;fill-rule:nonzero;fill:rgb(0%,0%,0%);fill-opacity:1;" d="M 103.152344 20.550781 L 94.355469 20.550781 C 94.390625 21.945312 94.757812 23.015625 95.476562 23.78125 C 96.191406 24.535156 97.167969 24.917969 98.421875 24.917969 C 99.824219 24.917969 101.113281 24.457031 102.289062 23.523438 L 102.289062 25.402344 C 101.191406 26.203125 99.746094 26.597656 97.941406 26.597656 C 96.183594 26.597656 94.804688 26.035156 93.792969 24.898438 C 92.785156 23.757812 92.28125 22.160156 92.28125 20.101562 C 92.28125 18.152344 92.832031 16.5625 93.929688 15.335938 C 95.027344 14.109375 96.394531 13.5 98.019531 13.5 C 99.644531 13.5 100.910156 14.03125 101.808594 15.089844 C 102.703125 16.148438 103.140625 17.621094 103.140625 19.503906 L 103.140625 20.550781 Z M 101.101562 18.859375 C 101.089844 17.703125 100.808594 16.800781 100.273438 16.160156 C 99.722656 15.515625 98.960938 15.191406 97.984375 15.191406 C 97.042969 15.191406 96.25 15.527344 95.585938 16.203125 C 94.925781 16.878906 94.523438 17.769531 94.367188 18.859375 Z M 101.101562 18.859375 "/>
<path style=" stroke:none;fill-rule:nonzero;fill:rgb(0%,0%,0%);fill-opacity:1;" d="M 116.265625 13.511719 L 110.445312 28.253906 C 109.40625 30.886719 107.949219 32.203125 106.078125 32.203125 C 105.550781 32.203125 105.113281 32.148438 104.753906 32.046875 L 104.753906 30.222656 C 105.191406 30.371094 105.59375 30.449219 105.953125 30.449219 C 106.972656 30.449219 107.734375 29.839844 108.25 28.613281 L 109.257812 26.203125 L 104.316406 13.511719 L 106.570312 13.511719 L 109.988281 23.296875 C 110.03125 23.421875 110.109375 23.75 110.246094 24.265625 L 110.324219 24.265625 C 110.367188 24.0625 110.445312 23.75 110.570312 23.320312 L 114.167969 13.511719 Z M 116.265625 13.511719 "/>
</g>
</svg>
